<svg
   [attr.fill]="fill"
   version="1.1"
   id="Capa_1"
   x="0px"
   y="0px"
   viewBox="0 0 512 512"
   style="enable-background:new 0 0 512 512;"
   xml:space="preserve"
   width="512"
   height="512"
   sodipodi:docname="double_list.svg"
   inkscape:version="1.2.1 (9c6d41e410, 2022-07-14)"
   xmlns:inkscape="http://www.inkscape.org/namespaces/inkscape"
   xmlns:sodipodi="http://sodipodi.sourceforge.net/DTD/sodipodi-0.dtd"
   xmlns="http://www.w3.org/2000/svg"
   xmlns:svg="http://www.w3.org/2000/svg"><defs
   id="defs1188">
</defs>
<path
   d="M 206.30586,372.95099 H 32.305858 c -17.673,0 -32.00000002,14.327 -32.00000002,32 0,17.673 14.32700002,32 32.00000002,32 H 206.30586 c 19.96635,0.0388 32,-15.00347 32,-32 0,-16.99653 -11.68805,-31.98576 -32,-32 z m 100,64 h 174 c 17.673,0 32,-14.327 32,-32 0,-17.673 -14.327,-32 -32,-32 h -174 c -21.83035,0.1147 -32,12.93895 -32,32 0,19.06105 13.99283,31.8853 32,32 z"
   id="path1177-6"
   sodipodi:nodetypes="csssczccsssczc" /><path
   d="M 206,224 H 32 c -17.673,0 -32,14.327 -32,32 0,17.673 14.327,32 32,32 h 174 c 19.96635,0.0388 32,-15.00347 32,-32 0,-16.99653 -11.68805,-31.98576 -32,-32 z m 100,64 h 174 c 17.673,0 32,-14.327 32,-32 0,-17.673 -14.327,-32 -32,-32 H 306 c -21.83035,0.1147 -32,12.93895 -32,32 0,19.06105 13.99283,31.8853 32,32 z"
   id="path1177"
   sodipodi:nodetypes="csssczccsssczc" /><path
   d="M 206.06559,74.405595 H 32.065593 c -17.673,0 -32.00000017,14.327 -32.00000017,31.999995 0,17.673 14.32700017,32 32.00000017,32 H 206.06559 c 19.96635,0.0388 32,-15.00347 32,-32 0,-16.996525 -11.68805,-31.985755 -32,-31.999995 z m 100,63.999995 h 174 c 17.673,0 32,-14.327 32,-32 0,-17.672995 -14.327,-31.999995 -32,-31.999995 h -174 c -21.83035,0.1147 -32,12.93895 -32,31.999995 0,19.06105 13.99283,31.8853 32,32 z"
   id="path1177-8"
   sodipodi:nodetypes="csssczccsssczc" />
</svg>