<svg
   [attr.fill]="fill"
   id="Layer_1"
   data-name="Layer 1"
   viewBox="0 0 24 24"
   width="512"
   height="512"
   version="1.1"
   sodipodi:docname="link.svg"
   inkscape:version="1.2.1 (9c6d41e410, 2022-07-14)"
   xmlns:inkscape="http://www.inkscape.org/namespaces/inkscape"
   xmlns:sodipodi="http://sodipodi.sourceforge.net/DTD/sodipodi-0.dtd"
   xmlns="http://www.w3.org/2000/svg"
   xmlns:svg="http://www.w3.org/2000/svg">
  <defs
     id="defs14" />
  <path
     d="M 18,10 C 18,7.794 16.206,6 14,6 12.205,6 10.7,7.196 10.196,8.828 L 8.02,9.619 C 8.218,6.488 10.821,4 14.001,4 c 3.309,0 6,2.691 6,6 0,3.18 -2.488,5.783 -5.619,5.981 l 0.791,-2.176 c 1.631,-0.505 2.828,-2.009 2.828,-3.804 z M 14,0 C 8.486,0 4,4.486 4,10 c 0,0.358 0.021,0.711 0.058,1.06 l 1.96,-0.713 C 6.013,10.231 6,10.117 6,10 6,5.589 9.589,2 14,2 c 4.411,0 8,3.589 8,8 0,4.411 -3.589,8 -8,8 -0.117,0 -0.231,-0.013 -0.347,-0.018 l -0.713,1.96 C 13.288,19.979 13.642,20 14,20 19.514,20 24,15.514 24,10 24,4.486 19.514,0 14,0 Z"
     id="path9"
     sodipodi:nodetypes="csccssccccssccssssccsss" />
  <path
     d="M 10.631689,10.996415 H 7.0384555 c -0.5957582,0 -1.0779702,0.464156 -1.0779702,1.037606 0,0.573449 0.482212,1.037605 1.0779702,1.037605 H 9.466763 l -7.5026721,7.221043 c -0.4211271,0.404666 -0.4211271,1.062508 0,1.467174 0.2105635,0.202679 0.4865238,0.303672 0.7624842,0.303672 0.2759603,0 0.5519207,-0.100993 0.7624842,-0.303672 L 10.991013,14.5388 v 2.33738 c 0,0.57345 0.482212,1.037605 1.07797,1.037605 0.595758,0 1.07797,-0.464155 1.07797,-1.037605 v -3.458685 c 0,-1.335053 -1.128275,-2.42108 -2.515264,-2.42108 z"
     id="path270"
     sodipodi:nodetypes="sssscccsscsssss"
     style="stroke-width:0.705064" />
</svg>
